<?xml version="1.0" encoding="utf-8"?>
<!-- Generator: Adobe Illustrator 25.0.0, SVG Export Plug-In . SVG Version: 6.00 Build 0)  -->
<svg version="1.1" id="Camada_1" xmlns="http://www.w3.org/2000/svg" xmlns:xlink="http://www.w3.org/1999/xlink" x="0px" y="0px"
	 viewBox="0 0 900 900" style="enable-background:new 0 0 900 900;" xml:space="preserve">
<style type="text/css">
	.st0{fill:#3BA738;}
	.st1{fill:#3CA939;}
</style>
<path class="st0" d="M349.92,506.25c-21.03,0.67-74.26,0.27-84.71,0.92c-3.65,0.23-4.13,4.35-4.75,7.23
	c-8.35,38.85-16.5,77.75-24.87,116.59c-8.88,41.25-17.86,82.48-26.95,123.68c-5.57,25.26-37.22,55.15-69.07,52.42
	c-27.33-2.34-54.69-4.41-82-6.95c-10.2-0.95-18.23-10.89-19.57-21.53c-1.71-13.5,3.58-25.48,7.42-37.71
	c24.32-77.52,175.64-562.11,193.77-621.21c2.11-6.88,5.68-12.79,10.79-18.01c23.58-24.11,52.24-29.16,84.31-24.07
	c59.32,9.41,114.44,31.05,163.46,64.47c47.01,32.04,89.08,71.03,110.24,126.28c24.26,63.35,8.69,163.11-84.75,200.42
	C466.08,491.6,406.97,505.2,349.92,506.25z M436.07,285.81c0.96-15.41-6.93-33.32-14.89-46.01c-17.98-28.66-62.52-70.34-68.74-74.3
	c-4.6-2.93-11.42-1.83-15.27,2.4c-4.6,5.04-4.37,10.35-1.02,16.21c4.09,7.15,18.6,20.31,23.62,26.81
	c17.12,22.17,31.59,55.21,26.81,78.73c-5.43,26.69-21.07,48.07-41.65,63.31c-19.38,14.35-34.38,28.57-57.16,36.94
	c-8.61,3.17-14.64,7.4-12.45,15.6c2.12,7.94,9.06,9.79,17.04,9.93c10.16,0.18,87.15-45.55,112.93-72.88
	C420.86,326.05,434.83,305.77,436.07,285.81z"/>
<path class="st1" d="M739.12,571.82c-49.11-3.2-92.77-18.5-124.58-58.48c-17.74-22.29-20.34-48.69-7.69-68.82
	c9.89-15.74,25.1-24.36,42.41-29.18c54.34-15.11,128.95,12.92,159.43,59.52c26.47,40.46,9.06,82.86-38.3,93.18
	C760.15,570.28,749.87,572.41,739.12,571.82z"/>
<path class="st1" d="M729.88,257.19c48.03,3.13,90.97,17.51,122.37,56.7c7,8.74,11.95,18.7,13.29,29.98
	c3.27,27.61-16.23,45.67-41.14,53.61c-51.16,16.3-121.69-4.15-155.94-45.3c-12.61-15.15-21.33-32.06-15.5-52.66
	c6.25-22.08,23.55-32.12,43.86-38.12C707.49,258.24,718.52,256.79,729.88,257.19z"/>
<path class="st1" d="M560.46,626.38c-34.03-1.36-65.38-10.93-93.18-31.03c-8.82-6.37-16.34-14.06-22.1-23.38
	c-12.36-20-8.52-40.6,10.41-54.57c12.78-9.43,27.47-13.97,43.11-14.69c46.95-2.15,88.14,11.18,117.82,49.21
	c23.3,29.86,10.28,62.38-26.69,71.03C580.15,625.2,570.44,626.61,560.46,626.38z"/>
<path class="st1" d="M642.44,128.06c33.39,1.22,64.08,10.53,90.95,31.01c6.39,4.87,11.99,10.55,16.64,17.17
	c17.54,25,9.83,49.7-18.88,60.34c-44.37,16.45-113.21-3.78-141.37-41.81c-9.65-13.03-14.86-27.28-6.41-42.98
	c6.12-11.37,17.24-16.44,28.91-19.81C622.02,129.17,632.08,127.34,642.44,128.06z"/>
</svg>
